<svg xmlns="http://www.w3.org/2000/svg" viewBox="0 0 48 48" width="48" height="48">
  <g>
    <path fill="#4285F4" d="M43.6 20.5H42V20.5H24V27.5H35.1C33.6 31.4 29.2 34 24 34C17.4 34 12 28.6 12 22C12 15.4 17.4 10 24 10C27.1 10 29.9 11.1 32 13L37 8C33.7 4.9 29.1 3 24 3C12.9 3 4 11.9 4 23C4 34.1 12.9 43 24 43C34.6 43 43 34.6 43 24C43 22.7 42.9 21.6 42.6 20.5Z"/>
    <path fill="#34A853" d="M6.3 14.7L12.1 19.1C13.7 15.6 18.4 12 24 12C26.7 12 29.1 13 31 14.7L36.7 9C33.2 5.8 28.8 4 24 4C15.2 4 7.9 10.7 6.3 14.7Z"/>
    <path fill="#FBBC05" d="M24 44C29.2 44 33.6 42.1 37 39.1L31.7 34.1C29.8 35.6 27.1 36.5 24 36.5C18.4 36.5 13.7 32.9 12.1 29.4L6.3 33.8C7.9 37.8 15.2 44 24 44Z"/>
    <path fill="#EA4335" d="M43.6 20.5H42V20.5H24V27.5H35.1C34.3 29.6 32.7 31.3 30.7 32.3L36.7 37.1C39.7 34.3 42 29.9 42 24C42 22.7 41.9 21.6 41.6 20.5Z"/>
  </g>
</svg>
